<svg xmlns="http://www.w3.org/2000/svg" xmlns:xlink="http://www.w3.org/1999/xlink" width="1024" height="1024" viewBox="0 0 1024 1024" fill="none">
<rect x="0" y="0" width="0" height="0" fill="rgba(249, 249, 249, 1)" />
<rect x="0" y="0" width="1024" height="1024" rx="180" fill="#5D78EC">
</rect>
<rect  x="154" y="171" width="717" height="685" rx="100"    fill="#0C1440" >
</rect>
<path     fill="#CCCCCC"  d="M389.5 639L626.5 639C649.972 639 669 658.028 669 681.5L669 681.5C669 704.972 649.972 724 626.5 724L389.5 724C366.028 724 347 704.972 347 681.5L347 681.5C347 658.028 366.028 639 389.5 639Z">
</path>
<path d="M701 458C701 488.928 680.181 514 654.5 514C628.819 514 608 488.928 608 458C608 427.072 628.819 402 654.5 402C680.181 402 701 427.072 701 458Z"   fill="#CCCCCC" >
</path>
<path d="M407 458C407 488.928 386.181 514 360.5 514C334.819 514 314 488.928 314 458C314 427.072 334.819 402 360.5 402C386.181 402 407 427.072 407 458Z"   fill="#CCCCCC" >
</path>
</svg>
